<svg id="Layer_1" data-name="Layer 1" xmlns="http://www.w3.org/2000/svg" xmlns:xlink="http://www.w3.org/1999/xlink" viewBox="0 0 25 25"><defs><style>.cls-1{fill:url(#radial-gradient);}.cls-2{fill:#fff;}</style><radialGradient id="radial-gradient" cx="8.14" cy="24.65" r="27.88" gradientUnits="userSpaceOnUse"><stop offset="0.1" stop-color="#ffd87a"/><stop offset="0.15" stop-color="#fccb76"/><stop offset="0.26" stop-color="#f4aa6d"/><stop offset="0.4" stop-color="#e8755e"/><stop offset="0.45" stop-color="#e36058"/><stop offset="0.68" stop-color="#cd3694"/><stop offset="1" stop-color="#6668b0"/></radialGradient></defs><rect class="cls-1" x="1.98" y="1.98" width="21.04" height="21.04" rx="4.32"/><path class="cls-2" d="M15.55,4.57H9.46A4.88,4.88,0,0,0,4.57,9.46v6.09a4.88,4.88,0,0,0,4.89,4.88h6.09a4.87,4.87,0,0,0,4.88-4.88V9.46A4.88,4.88,0,0,0,15.55,4.57ZM18.91,15A4,4,0,0,1,15,18.91H10A4,4,0,0,1,6.09,15V10A4,4,0,0,1,10,6.09H15A4,4,0,0,1,18.91,10Z"/><path class="cls-2" d="M12.71,8.35a4.18,4.18,0,1,0,4.18,4.18A4.18,4.18,0,0,0,12.71,8.35Zm0,6.69a2.52,2.52,0,1,1,2.52-2.51A2.51,2.51,0,0,1,12.71,15Z"/><path class="cls-2" d="M17.67,8.28A1.07,1.07,0,1,1,16.6,7.22,1.07,1.07,0,0,1,17.67,8.28Z"/></svg>